<svg width="29" height="32" viewBox="0 0 29 32" version="1.1" xmlns="http://www.w3.org/2000/svg" xmlns:xlink="http://www.w3.org/1999/xlink"><title>3FF3E1AE-C0A8-4A4E-8292-807DA3A6D194</title><defs><path id="a" d="M0 .056h28.377V31.84H0z"/><path id="c" d="M0 .056h28.377V31.84H0"/></defs><g stroke="none" stroke-width="1" fill="none" fill-rule="evenodd"><path d="M10.1 27.908H8.16v-1.212c0-.352-.02-.572-.06-.66-.043-.087-.133-.13-.275-.13-.16 0-.26.053-.303.16-.043.105-.065.335-.065.688v3.24c0 .338.022.56.065.662.043.104.14.156.29.156.144 0 .238-.052.282-.156.045-.104.067-.347.067-.73v-.878h1.94v.272c0 .722-.055 1.233-.164 1.535-.11.3-.35.566-.723.793-.373.227-.833.34-1.378.34-.568 0-1.036-.096-1.404-.288-.367-.192-.61-.458-.73-.798s-.18-.85-.18-1.534v-2.036c0-.502.017-.878.055-1.13.036-.25.146-.492.328-.725.183-.232.436-.415.76-.548.324-.135.696-.202 1.116-.202.57 0 1.04.104 1.412.31.37.206.616.463.732.77.117.31.175.788.175 1.438v.662z" fill="#002C5A"/><path d="M13.026 29.354c-.096-.788-.194-1.763-.293-2.925-.196 1.333-.32 2.308-.37 2.924h.663zm1.026-4.478l1.11 6.964h-1.98l-.104-1.253h-.694l-.11 1.253h-2.01l.985-6.964h2.802z" fill="#002C5A"/><path fill="#002C5A" d="M18.8 24.876v1.533h-1.156v5.43h-1.938v-5.43H14.56v-1.534"/><g transform="translate(0 .15)"><mask id="b" fill="#fff"><use xlink:href="#a"/></mask><path d="M22.797 26.837h-1.8v-.52c0-.24-.023-.395-.068-.46-.047-.067-.124-.1-.232-.1-.117 0-.205.044-.265.134-.06.09-.09.225-.09.406 0 .234.034.41.1.528.064.118.246.26.547.425.863.477 1.406.87 1.63 1.176.224.307.336.802.336 1.485 0 .498-.063.864-.187 1.1-.125.235-.365.432-.72.59-.356.16-.77.24-1.243.24-.52 0-.96-.092-1.328-.276-.367-.184-.608-.417-.72-.7-.115-.286-.17-.69-.17-1.212v-.456h1.798v.85c0 .262.026.43.076.505.05.076.14.113.27.113s.225-.047.288-.142c.063-.094.095-.235.095-.422 0-.41-.06-.68-.18-.806-.12-.127-.424-.337-.906-.632-.48-.298-.8-.514-.957-.65-.157-.134-.287-.32-.39-.56-.102-.236-.154-.54-.154-.91 0-.535.072-.925.218-1.172.146-.247.38-.44.707-.58.325-.138.718-.208 1.18-.208.502 0 .93.076 1.285.228.355.152.59.344.704.575.115.23.173.624.173 1.18v.274z" fill="#002C5A" mask="url(#b)"/></g><g transform="translate(0 .15)"><mask id="d" fill="#fff"><use xlink:href="#c"/></mask><path d="M.59 8.737c1.642 7.58 6.786 13.802 13.598 16.78 6.812-2.978 11.956-9.2 13.598-16.78-1.243-.725-2.082-2.096-2.082-3.67 0-1.06.38-2.026 1.008-2.767C22.802.848 18.584.056 14.187.056S5.573.848 1.664 2.3c.627.74 1.008 1.707 1.008 2.767 0 1.574-.84 2.945-2.082 3.67" fill="#FEFEFE" mask="url(#d)"/></g><path d="M26.193 5.217c0-1.002.386-1.91 1.014-2.58l-.495-.187c-.628.74-1.008 1.708-1.008 2.767 0 1.574.84 2.945 2.082 3.67-1.642 7.58-6.786 13.802-13.598 16.78C7.376 22.69 2.232 16.467.59 8.887c1.243-.725 2.082-2.096 2.082-3.67 0-1.06-.38-2.027-1.008-2.768-.166.06-.33.122-.496.186.63.67 1.016 1.578 1.016 2.58 0 1.53-.9 2.844-2.184 3.414 1.62 8.152 6.996 14.9 14.188 18.25 7.192-3.35 12.568-10.098 14.19-18.25-1.286-.57-2.185-1.883-2.185-3.413" fill="#002C5A"/><path d="M4.56 7.272c-.145-.103-.398-.232-.374-.315.057-.195 1.41-.2 1.662.812.206.83.42 1.886.886 2.058.49.18.78 0 .992-.15 0 0 .754-.65 1.394-.664.565-.01.966.167 1.455.435 0 0 .94.6 1.603.58.662-.023 1.042-.414 1.356-.626.315-.212 1.174-.752 1.726-.48.27.135.054.547-.055.748-.073.136-.36.754.13.97.67.295 2.507-1.628 4.026-1.628.643 0 1.396.663 1.396.663.21.15.504.335.992.15.463-.173.71-1.26.88-2.03.228-1.045 1.568-1.022 1.583-.838.008.09-.193.2-.343.29-.16.1-.17.142.145.244.703.23 1.386.487 2.027.75-.638-.835-1.02-1.886-1.02-3.027 0-1.135.378-2.18 1.008-3.014C22.312.91 18.328.206 14.188.206c-4.143 0-8.125.702-11.84 1.996.63.834 1.007 1.88 1.007 3.015 0 1.14-.378 2.187-1.013 3.02.65-.268 1.34-.527 2.03-.743.328-.102.294-.148.188-.222" fill="#002C5A"/><path d="M17.356 18.916c-.227.27-1.077 1.61-1.452 2.068-.382.465-.987.915-1.72.915-.73 0-1.336-.45-1.717-.916-.376-.458-1.225-1.8-1.452-2.068-.455-.54-1.146-.52-2.348-.217-.712.178-1.396.417-2.015.668 2.1 2.347 4.66 4.25 7.537 5.552 2.876-1.3 5.436-3.204 7.534-5.55-.62-.252-1.306-.49-2.02-.67-1.202-.303-1.893-.323-2.348.216" fill="#002C5A"/><path d="M14.846 15.283c-.213.173-.46.39-.672.39-.21 0-.46-.217-.672-.39-.078-.067-.064-.16.13-.19.13-.02.303-.034.542-.034.24 0 .41.012.542.033.193.03.208.123.13.19zm.007 4.248l.225.235s.17-.28.18-.742c0 0 .19.41.14.767-.008.06-.027.204-.168.25-.14.044-.483.173-1.036.173-.554 0-.896-.13-1.037-.174-.14-.046-.16-.19-.168-.25-.05-.356.14-.767.14-.767.008.46.18.742.18.742l.224-.234.198.297.26-.257.202.29.2-.29.26.257.2-.296zm6.862-8.602c-.596-.17-.964-.28-1.412-.357-.367-.06-.667.168-.746.51-.115.495-.448 1.222-1.33 1.373-1.255.215-1.56-.852-1.872-.75 0 0 .448-.427 1.148-.847-.043.11-.073.235-.073.366 0 .474.387.86.387.86s.388-.386.388-.86c0-.253-.11-.48-.213-.636.76-.428 1.516-.518 1.516-.518s-.83-.476-2.268.314c-.39.214-.858.484-1.48 1.045-.148.133-.665.54-.588 1.12.045.336.432.57.237.82-.172.217-.493-.125-1.225-.125-.732 0-1.052.342-1.223.124-.196-.25.19-.483.236-.82.077-.58-.44-.986-.587-1.12-.622-.56-1.09-.83-1.48-1.044-1.438-.79-2.267-.314-2.267-.314s.754.09 1.515.518c-.102.157-.212.383-.212.636 0 .474.387.86.387.86s.387-.386.387-.86c0-.13-.03-.255-.072-.366.7.42 1.148.848 1.148.848-.313-.103-.617.964-1.873.75-.882-.152-1.214-.88-1.33-1.375-.08-.342-.38-.57-.746-.51-.447.077-.815.187-1.41.358-1.675.483-3.136 1.077-4.254 1.594.54 1.347 1.202 2.63 1.97 3.833.31-.15.603-.28.844-.37.706-.268 1.518-.644 2.845-.014 1.407.67 2.534 1.97 2.534 1.97.08-.052.055-.237-.022-.39-.136-.268-.442-.58-.61-.752-.86-.885-.072-.98.24-.977.545.005 1.11.21 1.11.21-.842-.866-3.297-.904-3.297-.904 1.744-.49 3.887.565 3.887.565-1.728-1.578-5.506-1.2-5.506-1.2 2.817-.798 5.37.54 5.37.54-1.316-1.202-3.567-1.283-3.567-1.283 2.42-.278 4.127.95 4.66 1.66.422.562.53.75.566.823.04.08.217.412.02.647-.194.234-.628.19-.628.19s-.13.546-.098.758c0 0-.25-.168-.293-.76 0 0-.347-.054-.63-.233-.28-.178-.726-.468-.943-.256-.217.212.033.546.14.713.11.167 1.498 2.63 1.72 2.96.264.394.717.825 1.47.825.756 0 1.208-.43 1.472-.824.222-.33 1.61-2.793 1.72-2.96.108-.168.357-.502.14-.714-.216-.212-.66.078-.944.256-.282.18-.63.234-.63.234-.042.59-.292.76-.292.76.033-.213-.097-.76-.097-.76s-.435.045-.63-.19c-.195-.234-.02-.567.022-.646.037-.072.143-.26.565-.823.533-.71 2.24-1.938 4.66-1.66 0 0-2.252.08-3.568 1.283 0 0 2.554-1.338 5.37-.54 0 0-3.777-.378-5.506 1.2 0 0 2.143-1.054 3.887-.564 0 0-2.454.038-3.296.904 0 0 .564-.205 1.11-.21.312-.002 1.1.093.24.978-.17.173-.475.484-.61.753-.078.153-.102.338-.022.39 0 0 1.126-1.3 2.533-1.97 1.327-.63 2.14-.253 2.845.014.243.092.538.224.852.375.767-1.206 1.428-2.488 1.97-3.835-1.12-.517-2.583-1.113-4.26-1.597z" fill="#002C5A"/><path d="M6.81 5.145c-.183.048-.484.315-1.024.457-.922.243-1.543-.112-1.75-.942-.203-.818.208-1.513 1.223-1.78.357-.095.634-.094.792-.136.05-.013.128-.043.233-.09l-.007.7c-.32-.095-.632-.104-.925-.027-.59.155-.837.583-.686 1.19.14.56.485.78 1.004.643.452-.12.65-.35.575-.65l-.058-.233-.552.145c-.118.03-.202.076-.287.186l.003-.354c.004-.194.04-.235.244-.29l1.13-.296c-.05.09-.034.16-.01.26l.3 1.2c-.1.003-.167.007-.204.017" fill="#FEFEFE"/><path d="M7.464 4.663l-.27-1.715c-.037-.237-.12-.367-.277-.413l2.582-.43c-.024.045-.03.082-.026.113.01.052.103.22.242.54-.305-.134-.602-.13-.937-.074l-.982.164.096.61 1.085-.18c.143-.025.24-.078.32-.127l-.15.404c-.04.106-.122.173-.233.192l-.952.158.103.658 1.035-.172c.41-.068.72-.232.91-.47-.077.394-.14.616-.13.682.006.035.03.067.064.106l-2.62.436c.135-.09.175-.245.137-.48" fill="#FEFEFE"/><path d="M10.42 4.2l-.125-1.733c-.018-.24-.09-.376-.242-.436l2.61-.198c-.027.043-.037.08-.035.11.004.053.084.23.195.56-.293-.16-.588-.183-.927-.157l-.99.075.043.616 1.095-.083c.146-.01.248-.055.33-.097l-.183.388c-.047.102-.136.162-.248.17l-.962.074.048.664 1.045-.08c.414-.03.736-.167.947-.387-.11.387-.192.602-.187.67.002.034.022.068.054.11l-2.647.202c.14-.078.194-.23.176-.468" fill="#FEFEFE"/><path d="M13.188 1.802l1.044.018c-.148.064-.226.218-.23.45l-.027 1.735.708.012c.4.007.71-.072.982-.3-.144.376-.248.584-.25.65 0 .036.02.072.05.117l-2.32-.04c.15-.068.214-.213.218-.45l.028-1.735c.004-.24-.056-.384-.202-.458" fill="#FEFEFE"/><path d="M17.644 3.268c.04-.55-.226-.88-.72-.92-.543-.04-.873.277-.916.88-.04.54.227.872.72.91.54.04.873-.276.916-.87m-.918 1.36c-.932-.07-1.42-.64-1.36-1.463.06-.837.653-1.37 1.56-1.3.933.07 1.426.624 1.364 1.493-.058.797-.657 1.34-1.564 1.27" fill="#FEFEFE"/><path d="M19.09 4.353c-.035.242-.01.385.138.49l-.972-.162c.16-.044.24-.18.28-.42l.27-1.697c.037-.24.003-.395-.135-.49l1.205.202c-.022.028-.034.048-.036.06-.003.02.003.056.017.103l.647 2.13.258-1.676c.038-.24-.008-.402-.143-.492l.947.16c-.21.067-.24.216-.27.413l-.003.022-.305 1.916c-.016.093-.02.164.02.234l-.988-.166c.027-.032.04-.057.042-.074.003-.018-.006-.046-.02-.094l-.72-2.204-.234 1.747z" fill="#FEFEFE"/><path d="M23.72 5.716c-.182-.048-.57.038-1.11-.103-.923-.24-1.303-.86-1.097-1.69.203-.817.888-1.225 1.903-.96.358.094.6.23.76.272.048.013.13.026.245.037l-.33.61c-.236-.24-.507-.403-.8-.48-.59-.153-1.006.1-1.157.707-.138.558.06.922.582 1.058.45.118.732.013.807-.288l.057-.233-.554-.144c-.117-.03-.212-.033-.338.02l.167-.308c.094-.168.146-.186.35-.133l1.13.295c-.088.055-.106.124-.13.223l-.298 1.2c-.088-.045-.15-.075-.186-.084" fill="#FEFEFE"/></g></svg>